<svg width="3418" height="1607" xmlns="http://www.w3.org/2000/svg" xmlns:xlink="http://www.w3.org/1999/xlink" overflow="hidden"><defs><clipPath id="clip0"><rect x="402" y="794" width="3418" height="1607"/></clipPath><clipPath id="clip1"><rect x="402" y="794" width="3417" height="1606"/></clipPath><clipPath id="clip2"><rect x="595" y="853" width="3178" height="1137"/></clipPath><clipPath id="clip3"><rect x="595" y="853" width="3178" height="1137"/></clipPath><clipPath id="clip4"><rect x="595" y="853" width="3178" height="1137"/></clipPath><clipPath id="clip5"><rect x="595" y="853" width="3178" height="1137"/></clipPath><clipPath id="clip6"><rect x="595" y="853" width="3178" height="1137"/></clipPath><clipPath id="clip7"><rect x="402" y="794" width="3417" height="1606"/></clipPath><clipPath id="clip8"><rect x="402" y="794" width="3417" height="1606"/></clipPath><clipPath id="clip9"><rect x="402" y="794" width="3417" height="1606"/></clipPath><clipPath id="clip10"><rect x="402" y="794" width="3417" height="1606"/></clipPath><clipPath id="clip11"><rect x="402" y="794" width="3417" height="1606"/></clipPath><clipPath id="clip12"><rect x="402" y="794" width="3417" height="1606"/></clipPath><clipPath id="clip13"><rect x="402" y="794" width="3417" height="1606"/></clipPath><clipPath id="clip14"><rect x="402" y="794" width="3417" height="1606"/></clipPath><clipPath id="clip15"><rect x="402" y="794" width="3417" height="1606"/></clipPath><clipPath id="clip16"><rect x="402" y="794" width="3417" height="1606"/></clipPath><clipPath id="clip17"><rect x="402" y="794" width="3417" height="1606"/></clipPath><clipPath id="clip18"><rect x="402" y="794" width="3417" height="1606"/></clipPath><clipPath id="clip19"><rect x="402" y="794" width="3417" height="1606"/></clipPath><clipPath id="clip20"><rect x="402" y="794" width="3417" height="1606"/></clipPath><clipPath id="clip21"><rect x="402" y="794" width="3417" height="1606"/></clipPath><clipPath id="clip22"><rect x="402" y="794" width="3417" height="1606"/></clipPath><clipPath id="clip23"><rect x="402" y="794" width="3417" height="1606"/></clipPath><clipPath id="clip24"><rect x="402" y="794" width="3417" height="1606"/></clipPath><clipPath id="clip25"><rect x="402" y="794" width="3417" height="1606"/></clipPath><clipPath id="clip26"><rect x="402" y="794" width="3417" height="1606"/></clipPath><clipPath id="clip27"><rect x="402" y="794" width="3417" height="1606"/></clipPath><clipPath id="clip28"><rect x="402" y="794" width="3417" height="1606"/></clipPath><clipPath id="clip29"><rect x="402" y="794" width="3417" height="1606"/></clipPath><clipPath id="clip30"><rect x="402" y="794" width="3417" height="1606"/></clipPath><clipPath id="clip31"><rect x="402" y="794" width="3417" height="1606"/></clipPath><clipPath id="clip32"><rect x="402" y="794" width="3417" height="1606"/></clipPath><clipPath id="clip33"><rect x="402" y="794" width="3417" height="1606"/></clipPath><clipPath id="clip34"><rect x="402" y="794" width="3417" height="1606"/></clipPath><clipPath id="clip35"><rect x="402" y="794" width="3417" height="1606"/></clipPath><clipPath id="clip36"><rect x="402" y="794" width="3417" height="1606"/></clipPath><clipPath id="clip37"><rect x="402" y="794" width="3417" height="1606"/></clipPath></defs><g clip-path="url(#clip0)" transform="translate(-402 -794)"><rect x="403" y="795" width="3417" height="1606" fill="#FFFFFF"/><g clip-path="url(#clip1)"><path d="M595.5 1760.56 3769.5 1760.56M595.5 1533.55 3769.5 1533.55M595.5 1307.54 3769.5 1307.54M595.5 1080.54 3769.5 1080.54M595.5 853.5 3769.5 853.5" stroke="#D9D9D9" stroke-width="6.875" stroke-linejoin="round" stroke-miterlimit="10" fill="none"/></g><g clip-path="url(#clip2)"><path d="M655.022 854 710.023 854 710.023 1987 655.022 1987ZM1109.04 1086.04 1164.04 1086.04 1164.04 1987 1109.04 1987Z" fill="#DDD9C3"/></g><g clip-path="url(#clip3)"><path d="M725.024 854 780.026 854 780.026 1987 725.024 1987ZM1178.04 1086.04 1233.04 1086.04 1233.04 1987 1178.04 1987ZM1632.05 1693.06 1687.06 1693.06 1687.06 1987 1632.05 1987Z" fill="#D99694"/></g><g clip-path="url(#clip4)"><path d="M795.026 855.028 849.028 855.028 849.028 1987 795.026 1987ZM1248.04 1231.04 1303.04 1231.04 1303.04 1987 1248.04 1987Z" fill="#C3D69B"/></g><g clip-path="url(#clip5)"><path d="M864.028 854 919.03 854 919.03 1987 864.028 1987ZM1318.04 854 1372.05 854 1372.05 1987 1318.04 1987ZM1771.06 1612.05 1826.06 1612.05 1826.06 1987 1771.06 1987ZM2225.07 1589.05 2279.07 1589.05 2279.07 1987 2225.07 1987ZM2678.09 1591.05 2733.09 1591.05 2733.09 1987 2678.09 1987ZM3132.1 1591.05 3186.1 1591.05 3186.1 1987 3132.1 1987ZM3585.12 1660.05 3640.12 1660.05 3640.12 1987 3585.12 1987Z" fill="#B3A2C7"/></g><g clip-path="url(#clip6)"><path d="M934.031 855.028 989.032 855.028 989.032 1987 934.031 1987ZM1387.05 854 1442.05 854 1442.05 1987 1387.05 1987ZM1841.06 1238.04 1896.06 1238.04 1896.06 1987 1841.06 1987ZM2294.08 894.029 2349.08 894.029 2349.08 1987 2294.08 1987ZM2748.09 1640.05 2803.09 1640.05 2803.09 1987 2748.09 1987ZM3201.1 1183.04 3256.11 1183.04 3256.11 1987 3201.1 1987ZM3655.12 1333.04 3709.12 1333.04 3709.12 1987 3655.12 1987Z" fill="#376092"/></g><g clip-path="url(#clip7)"><path d="M595.5 1987.5 3769.5 1987.5" stroke="#D9D9D9" stroke-width="3.4375" stroke-linejoin="round" stroke-miterlimit="10" fill="none" fill-rule="evenodd"/></g><g clip-path="url(#clip8)"><text fill="#595959" font-family="Arial,Arial_MSFontService,sans-serif" font-weight="400" font-size="73" transform="matrix(1 0 0 1 491.333 2010)">0</text></g><g clip-path="url(#clip9)"><text fill="#595959" font-family="Arial,Arial_MSFontService,sans-serif" font-weight="400" font-size="73" transform="matrix(1 0 0 1 450.542 1784)">20</text></g><g clip-path="url(#clip10)"><text fill="#595959" font-family="Arial,Arial_MSFontService,sans-serif" font-weight="400" font-size="73" transform="matrix(1 0 0 1 450.542 1557)">40</text></g><g clip-path="url(#clip11)"><text fill="#595959" font-family="Arial,Arial_MSFontService,sans-serif" font-weight="400" font-size="73" transform="matrix(1 0 0 1 450.542 1330)">60</text></g><g clip-path="url(#clip12)"><text fill="#595959" font-family="Arial,Arial_MSFontService,sans-serif" font-weight="400" font-size="73" transform="matrix(1 0 0 1 450.542 1103)">80</text></g><g clip-path="url(#clip13)"><text fill="#595959" font-family="Arial,Arial_MSFontService,sans-serif" font-weight="400" font-size="73" transform="matrix(1 0 0 1 409.75 876)">100</text></g><g clip-path="url(#clip14)"><text fill="#595959" font-family="Arial,Arial_MSFontService,sans-serif" font-weight="400" font-size="73" transform="matrix(1 0 0 1 711.916 2098)">Task 1</text></g><g clip-path="url(#clip15)"><text fill="#595959" font-family="Arial,Arial_MSFontService,sans-serif" font-weight="400" font-size="73" transform="matrix(1 0 0 1 695.611 2182)">1S / 2M</text></g><g clip-path="url(#clip16)"><text fill="#595959" font-family="Arial,Arial_MSFontService,sans-serif" font-weight="400" font-size="73" transform="matrix(1 0 0 1 1165.4 2098)">Task 2</text></g><g clip-path="url(#clip17)"><text fill="#595959" font-family="Arial,Arial_MSFontService,sans-serif" font-weight="400" font-size="73" transform="matrix(1 0 0 1 1149.1 2182)">1S / 2M</text></g><g clip-path="url(#clip18)"><text fill="#595959" font-family="Arial,Arial_MSFontService,sans-serif" font-weight="400" font-size="73" transform="matrix(1 0 0 1 1618.89 2098)">Task 3</text></g><g clip-path="url(#clip19)"><text fill="#595959" font-family="Arial,Arial_MSFontService,sans-serif" font-weight="400" font-size="73" transform="matrix(1 0 0 1 1602.59 2182)">2S / 3M</text></g><g clip-path="url(#clip20)"><text fill="#595959" font-family="Arial,Arial_MSFontService,sans-serif" font-weight="400" font-size="73" transform="matrix(1 0 0 1 2072.38 2098)">Task 4</text></g><g clip-path="url(#clip21)"><text fill="#595959" font-family="Arial,Arial_MSFontService,sans-serif" font-weight="400" font-size="73" transform="matrix(1 0 0 1 2056.08 2182)">2S / 4M</text></g><g clip-path="url(#clip22)"><text fill="#595959" font-family="Arial,Arial_MSFontService,sans-serif" font-weight="400" font-size="73" transform="matrix(1 0 0 1 2515.68 2098)">Task 5</text></g><g clip-path="url(#clip23)"><text fill="#595959" font-family="Arial,Arial_MSFontService,sans-serif" font-weight="400" font-size="73" transform="matrix(1 0 0 1 2499.38 2182)">2S / 6M</text></g><g clip-path="url(#clip24)"><text fill="#595959" font-family="Arial,Arial_MSFontService,sans-serif" font-weight="400" font-size="73" transform="matrix(1 0 0 1 2979.36 2098)">Task 6</text></g><g clip-path="url(#clip25)"><text fill="#595959" font-family="Arial,Arial_MSFontService,sans-serif" font-weight="400" font-size="73" transform="matrix(1 0 0 1 2963.05 2182)">3S / 4M</text></g><g clip-path="url(#clip26)"><text fill="#595959" font-family="Arial,Arial_MSFontService,sans-serif" font-weight="400" font-size="73" transform="matrix(1 0 0 1 3432.84 2098)">Task 7</text></g><g clip-path="url(#clip27)"><text fill="#595959" font-family="Arial,Arial_MSFontService,sans-serif" font-weight="400" font-size="73" transform="matrix(1 0 0 1 3416.54 2182)">3S / 5M</text></g><g clip-path="url(#clip28)"><rect x="1204" y="2301" width="36.9998" height="36" fill="#DDD9C3"/></g><g clip-path="url(#clip29)"><text fill="#595959" font-family="Arial,Arial_MSFontService,sans-serif" font-weight="700" font-size="73" transform="matrix(1 0 0 1 1257.39 2342)">Sparse</text></g><g clip-path="url(#clip30)"><rect x="1577" y="2301" width="36.9998" height="36" fill="#D99694"/></g><g clip-path="url(#clip31)"><text fill="#595959" font-family="Arial,Arial_MSFontService,sans-serif" font-weight="700" font-size="73" transform="matrix(1 0 0 1 1630.41 2342)">Stage</text></g><g clip-path="url(#clip32)"><rect x="1905" y="2301" width="36.9998" height="36" fill="#C3D69B"/></g><g clip-path="url(#clip33)"><text fill="#595959" font-family="Arial,Arial_MSFontService,sans-serif" font-weight="700" font-size="73" transform="matrix(1 0 0 1 1958.53 2342)">LIV</text></g><g clip-path="url(#clip34)"><rect x="2147" y="2301" width="36.9998" height="36" fill="#B3A2C7"/></g><g clip-path="url(#clip35)"><text fill="#595959" font-family="Arial,Arial_MSFontService,sans-serif" font-weight="700" font-size="73" transform="matrix(1 0 0 1 2201.01 2342)">LOReL</text></g><g clip-path="url(#clip36)"><rect x="2516" y="2301" width="37.0002" height="36" fill="#376092"/></g><g clip-path="url(#clip37)"><text fill="#595959" font-family="Arial,Arial_MSFontService,sans-serif" font-weight="700" font-size="73" transform="matrix(1 0 0 1 2569.81 2342)">VICtoR (ours)</text></g></g></svg>